<svg width="24" height="24" viewBox="0 0 24 24" fill="none" xmlns="http://www.w3.org/2000/svg">
<g id="icon/places/spa_24px">
<path id="icon/places/spa_24px_2" fill-rule="evenodd" clip-rule="evenodd" d="M12.8396 2.6175C14.4496 4.5875 15.3196 6.9575 15.4796 9.3775C14.1996 10.0675 13.0196 10.9475 11.9896 12.0075C10.9596 10.9375 9.77956 10.0575 8.49956 9.3775C8.69956 6.9675 9.61956 4.5975 11.2696 2.6175C11.6796 2.1175 12.4296 2.1175 12.8396 2.6175ZM8.89893 11.9722C8.92638 11.9904 8.95332 12.0088 8.97956 12.0275C8.9572 12.0115 8.93433 11.9961 8.91107 11.9809C8.90703 11.978 8.90298 11.9751 8.89893 11.9722ZM8.89893 11.9722C7.24624 10.7869 5.28592 10.0149 3.15956 9.8075C2.51956 9.7475 1.98956 10.2775 2.04956 10.9175C2.49956 15.7175 5.69956 19.6975 10.0296 21.2475C10.6596 21.4775 11.3196 21.6475 11.9996 21.7575C12.6796 21.6375 13.3296 21.4675 13.9696 21.2475C18.2996 19.6975 21.4996 15.7275 21.9496 10.9175C22.0096 10.2775 21.4696 9.7475 20.8396 9.8075C17.1296 10.1675 13.9396 12.2275 11.9896 15.1975C11.166 13.9431 10.1213 12.8511 8.91107 11.9809C8.86573 11.9514 8.81891 11.923 8.77152 11.8943L8.77152 11.8943L8.77151 11.8943C8.69102 11.8455 8.60889 11.7957 8.52956 11.7375C8.5925 11.7795 8.65721 11.8197 8.72145 11.8596C8.78162 11.897 8.84138 11.9341 8.89893 11.9722Z" fill="#F9D960"/>
</g>
</svg>
